Patient4_TMGait_0pt7_02_left_39_EMG.mot
version=1
nRows=37
nColumns=33
inDegrees=no
endheader
time	1LAddLong	2LGlutMax	3LGlutMed	4LIliopsoas	5LSemiMemb	6LBicFemLong	7LRecFem	8LVastMed	9LVastLat	10LGasMed	11LTibAnt	12lTibPost	13LPeroneusLong	14LSol	15LExtDigLong	16LFlexDigLong	17RAddLong	18RGlutMax	19RGlutMed	20RIliopsoas	21RSemiMemb	22RBicFemLong	23RRecFem	24RVastMed	25RVastLat	26RGasMed	27RTibAnt	28RTibPost	29RPeroneusLong	30RSol	31RExtDigLong	32RFlexDigLong
44.62	0.010223	0.15762	-0.03479	0.021515	0.031433	-0.02594	-0.02594	-0.009003	0.21347	-0.00351	0.01236	0.005493	-0.011139	0.026855	-0.040894	-0.003357	0.01236	0.11261	-0.41	-0.10925	-0.21484	-0.19547	-0.22842	-0.099487	0.0177	-0.088043	0.044403	0.06958	-0.12726	0.058441	-0.00351	0.004883
44.621	0.011292	0.18692	-0.06485	0.062256	0.01709	-0.014191	-0.041199	-0.00061	0.22324	0.003815	0.048523	0.005646	0.009308	0.013275	-0.24429	-0.007935	0.02243	0.19562	-0.33798	-0.12131	-0.39887	-0.1651	-0.32638	-0.11292	-0.04364	-0.15366	0.004578	-0.046082	-0.37552	0.1358	-0.003662	0.007935
44.622	0.006866	0.18524	-0.050049	0.066681	-0.001678	-0.004883	-0.031281	0.000305	0.24414	0.004425	0.028839	0.000153	0.034332	0.059814	0.030823	-0.019836	0.037537	0.26962	-0.39887	-0.08728	-0.19287	-0.11078	-0.47852	-0.09613	0.022125	0.001068	-0.10223	-0.070648	0.36179	0.62012	-0.003357	-0.001373
44.623	0.007782	0.19699	-0.03067	0.076752	0.008392	0.005341	-0.033417	0.001831	0.24567	0.010681	-0.057831	0.002289	0.033112	0.045929	0.73593	-0.019531	0.055237	0.28259	-0.23178	-0.019836	0.038605	-0.084381	-0.34271	0.027313	-0.001526	0.17517	-0.11627	0.055847	1.3911	0.73227	-0.003662	0.000458
44.624	0.000763	0.20111	-0.015106	0.04715	0.008087	0.008392	-0.05249	0.006409	0.24445	0.012054	-0.1088	0.006561	0.031433	-0.003967	0.053711	-0.021667	0.081635	0.31174	0.43289	-0.026093	0.069122	-0.11948	-0.17624	0.13763	0.026398	0.24368	-0.023193	0.15366	0.42267	0.15167	-0.010223	-0.000763
44.625	-0.003204	0.16571	-0.019989	0.015259	0.035553	0.002594	-0.034332	-0.000153	0.25269	0.013733	-0.10117	0.004425	0.015869	-0.081177	-0.33249	-0.020599	0.066986	0.31891	0.49835	-0.11292	0.085754	-0.045013	-0.062408	0.18082	0.049133	0.12955	0.028076	0.00351	-0.56625	-0.006866	-0.008545	-0.000305
44.626	-0.000916	0.1651	0.009003	-0.016327	-0.005646	-0.002747	0.029144	0.004578	0.25452	0.026245	-0.038605	0.011139	-0.018158	-0.14023	-0.12497	-0.019836	0.047607	0.26047	0.86243	-0.14343	-0.063171	-0.053253	-0.099182	0.091553	0.12375	0.085602	0.028229	0.00946	-0.49042	0.065155	-0.001068	-0.007935
44.627	0.001221	0.16434	-0.017242	-0.05722	0.035095	0.008392	0.079803	0.001831	0.2504	0.007172	0.015564	0.007019	-0.070801	-0.11353	-0.17258	-0.00885	0.007629	0.19928	0.47318	-0.048981	-0.14633	-0.071106	-0.078888	0.012207	0.10773	0.056915	-0.036011	0.02533	-0.25116	-0.14648	-0.002289	0.002289
44.628	0.007629	0.16251	-0.034027	-0.037994	0.010376	0.013123	0.063324	0.010223	0.24017	0.002289	0.036774	0.013885	-0.028992	-0.066376	-0.072174	-0.012817	-0.04715	0.23148	0.15106	0.0737	-0.11292	-0.037079	-0.090332	0.025177	0.088196	0.04776	-0.079803	0.019073	-0.3183	-0.28748	0.001373	-0.007629
44.629	0.009155	0.18356	-0.040131	-0.019226	0.010376	0.027924	0.043182	0.009155	0.24597	0.004425	0.20096	0.015259	-0.037079	-0.046844	0.061951	-0.008087	-0.089417	0.24155	-0.25391	0.19989	-0.19073	-0.11154	-0.1207	0.14297	0.1178	0.052032	-0.023804	0.015259	-0.16113	-0.18341	-0.000458	-0.005951
44.63	0.009613	0.2095	-0.048065	-0.014343	0.000916	0.018921	0.052643	0.010681	0.25116	0.012054	0.26688	0.014954	-0.057678	-0.054626	-0.10757	-0.02533	-0.041656	0.22186	-0.30868	0.13458	-0.18433	-0.099182	-0.025177	0.097504	0.20004	0.005188	0.029602	0.011749	0.29175	0.07431	-0.001984	-0.010071
44.631	0.011444	0.18601	-0.06546	0.015717	0.009308	0.037384	0.075378	0.015717	0.25101	0.015259	0.25253	0.006256	-0.051117	-0.02121	-0.083923	-0.012665	-0.01709	0.18478	-0.11185	-0.025177	-0.13779	-0.012817	-0.009766	-0.069733	0.18066	-0.079346	0.08606	0.012817	0.31052	0.003815	-0.002289	-0.010071
44.632	0.025024	0.19745	-0.060272	0.02182	0.004425	0.02243	0.057678	0.008392	0.23651	-0.008392	0.079803	0.005341	0.005188	-0.02533	0.003815	-0.011902	-0.01709	0.10407	0.58884	-0.054779	-0.14984	0.069427	0.005341	-0.12329	0.14862	-0.103	0.10742	0.015717	-0.093689	-0.19409	0.000916	-0.014954
44.633	0.026245	0.18097	-0.047607	0.016022	0.009155	0.023956	0.054474	0.013885	0.24429	-0.026245	-0.039368	0.009308	0.041962	0.074768	0.19821	-0.010223	-0.015259	0.14999	1.1026	-0.021515	-0.17914	0.0737	-0.01709	-0.11047	0.22293	-0.082245	0.06546	0.026398	-0.31174	-0.42267	-0.007782	-0.009766
44.634	0.031586	0.15793	-0.040283	-0.002441	0.001678	0.00412	0.049896	0.010681	0.25146	-0.038757	-0.04303	0.011139	0.054779	0.13275	0.27878	0.001831	0.009613	0.07309	-0.15442	0.074463	-0.23758	0.006409	-0.008698	-0.045166	0.23254	-0.025635	0.031891	0.018158	0.28519	-0.62836	-0.003204	-0.006714
44.635	0.026855	0.12131	-0.040741	-0.011749	-0.016022	0.012512	0.070496	0.015411	0.25497	-0.031128	-0.034027	0.000305	0.056305	0.031891	0.20233	-0.001526	0.017548	0.025787	-0.4744	0.1535	-0.3479	-0.093689	0.008087	0.11841	0.26657	0.10101	0.036011	-0.028381	0.29526	-0.80902	-0.000305	-0.00824
44.636	0.017395	0.16678	-0.037842	0.009003	0.011902	-0.011139	0.074005	0.010681	0.25574	0.016479	-0.21042	0.007629	-0.015411	-0.027313	0.50781	0.007477	0.033417	0.006409	-0.74371	0.1033	-0.1886	-0.16052	-0.068665	0.10422	0.040588	0.11032	0.12253	-0.083313	-0.33249	-0.51178	-0.001526	-0.00824
44.637	0.014191	0.16586	-0.013885	-0.006256	0.01236	-0.021057	0.032043	0.01358	0.2655	0.019073	-0.1355	0.014191	-0.087891	0.002747	0.31494	0.001373	0.066223	0.053406	-0.60425	0.026398	0.14053	-0.15869	0.098724	-0.020905	-0.50888	0.051422	0.14603	0.041351	0.17792	-0.088348	-0.003357	0.001831
44.638	0.01297	0.19028	-0.002136	-0.009766	0.009308	0.01709	0.003662	0.005493	0.26154	0.005035	0.25284	0.007172	-0.062103	0.027313	-0.2887	0.006866	0.045624	0.078583	-0.26093	0.005035	0.12909	0.005188	0.16403	-0.1387	-0.48691	0.04364	-0.060883	0.021515	1.7667	0.11917	0.002136	0.005951
44.639	0.007324	0.16037	-0.0383	0.000458	0.014038	-0.004578	0.027771	0.005188	0.25711	-0.022278	0.24353	0.007782	-0.011292	0.002441	-0.59708	-0.001678	-0.013123	0.077515	-0.44815	0.035553	0.012054	0.018921	0.13397	0.017548	-0.046844	0.040436	-0.19867	0.00885	1.7746	0.10757	-0.004272	0.012817
44.64	0.010834	0.15167	-0.08255	-0.010071	-0.00824	-0.010529	0.051422	0.00412	0.26276	-0.018311	0.022888	0.008392	0.005188	-0.033112	-0.63828	-0.019684	0.000916	-0.044098	0.12665	-0.038452	-0.20752	0.020752	0.019073	0.078278	0.090332	0.0354	-0.046234	0.01297	-0.91766	-0.069885	-0.003052	-0.001221
44.641	0.007477	0.15427	-0.092926	-0.017395	-0.002441	-0.027618	0.079651	0.006714	0.26276	-0.015106	-0.22034	0.005188	0.009766	-0.010529	-0.50751	-0.017548	0.007629	-0.12436	0.91232	-0.034485	-0.24002	0.21866	-0.048065	0.027618	0.098572	0.019836	0.082703	0.018768	-3.0986	-0.18539	-0.005493	-0.007935
44.642	0.001678	0.16968	-0.067902	0.032959	-0.007324	-0.005341	0.066528	0.009003	0.25665	-0.00824	-0.30472	0.007324	0.026093	-0.039978	-0.43152	-0.016327	0.027313	-0.15289	0.70084	-0.039978	0.09964	0.24811	-0.067902	0.051422	0.049438	-0.018768	0.070648	0.006561	-1.5387	-0.084076	-0.00824	-0.008087
44.643	-0.000458	0.16052	-0.060425	0.06958	-0.013733	-0.009613	0.059814	0.013885	0.24262	0.016479	-0.13016	0.006256	-0.031281	-0.11932	-0.29465	-0.014191	0.032196	-0.12787	0.55969	-0.12238	0.12085	0.14374	-0.048523	0.17471	0.015106	-0.012207	-0.054626	0.00061	0.45898	-0.050049	-0.000763	-0.002136
44.644	0.003815	0.16144	-0.045929	0.090637	-0.016785	-0.002441	0.067902	0.015259	0.24155	-0.002747	-0.02121	0.003662	-0.01297	-0.18112	0.28275	-0.003815	0.001831	-0.10895	0.20783	-0.2475	0.22125	0.12604	0.058441	0.2739	-0.24445	-0.014648	-0.092773	-0.00473	0.38559	0.036163	-0.002136	-0.007324
44.645	0.004883	0.1915	-0.017395	0.062714	-0.003815	-0.016174	0.040894	0.0177	0.2385	-0.016937	0.21652	0.007324	-0.036316	-0.10788	0.27786	0.007172	-0.000305	-0.12695	-0.24368	-0.21103	0.13336	-0.17395	0.11459	0.001526	-0.45776	-0.017242	0.022736	0.003662	-0.000153	0.1329	-0.002747	-0.002136
44.646	-0.003204	0.22614	0.00946	-0.012054	-0.014954	-0.018921	0.011597	0.019226	0.23209	-0.049896	0.20004	0.005493	0.006256	-0.03952	0.13534	0.00412	-0.007935	-0.20004	-0.41748	-0.21896	-0.25574	-0.41565	0.17731	-0.19959	-0.522	-0.068054	0.063782	0.016632	-0.085449	0.21088	0.000153	-0.000153
44.647	0.002441	0.21637	-0.016327	-0.021515	0.007019	-0.006104	-0.032501	0.015564	0.22018	-0.041962	-0.069885	0.009766	0.058899	-0.009003	1.0643	0.010071	-0.048828	-0.16037	-0.13657	-0.13336	-0.49042	-0.24918	0.19913	-0.14145	-0.29694	-0.049133	0.034332	0.019073	-0.18997	0.043335	-0.001373	0.003967
44.648	0.007324	0.21271	-0.030823	-0.015564	0.007935	-0.016785	-0.057983	0.016785	0.20935	-0.035553	0.023499	0.006409	0.078583	0.019989	-0.064392	0.022888	-0.058441	-0.13947	0.45685	0.047913	-0.45364	-0.10544	0.14801	-0.039978	-0.12283	-0.007172	-0.010376	0.007477	-0.20554	-0.13077	0.000763	-0.012207
44.649	0.008392	0.2211	-0.028076	-0.007782	-0.015564	-0.01297	-0.091553	0.018616	0.18814	-0.015564	0.049438	-0.001068	0.007782	0.013733	0.4126	0.012665	-0.059204	-0.17609	0.57526	0.30838	0.027161	-0.35965	0.081024	0.06424	-0.028076	0.001984	-0.04425	-0.001068	-0.28	-0.068665	0.007782	-0.00946
44.65	0.013275	0.23712	-0.029297	-0.002441	0.008545	-0.001068	-0.011597	0.012207	0.18784	-0.015106	0.10391	0.010834	-0.041656	0.017548	-0.69977	0.004272	-0.05722	-0.1503	0.12451	0.35965	0.14694	-0.15762	-0.022736	0.041046	-0.029297	0.00885	0.009308	-0.011444	-0.64285	-0.10986	-0.002441	-0.007324
44.651	0.018311	0.24124	-0.02594	-0.002136	-0.005493	0.001526	0.031128	0.005646	0.18768	-0.00885	-0.19104	0.016022	-0.03891	-0.046539	-0.36987	-0.00061	-0.064087	-0.11246	-0.12848	0.17059	0.1712	0.054779	0.013275	0.083313	-0.042725	0.001373	0.04425	0.05249	-0.97992	-0.17868	-0.001678	-0.007019
44.652	0.027008	0.24078	-0.015106	0.025024	0.00351	0.005493	0.06073	0.007935	0.1889	-0.009918	-0.11795	0.012665	0.016327	-0.007324	-0.46906	-0.002594	-0.03067	-0.084686	-0.15396	0.14282	0.035858	0.015717	0.028076	0.011444	0.054169	0.008392	-0.024719	0.044098	0.82031	-0.20309	-0.00061	-0.014343
44.653	0.025024	0.25482	-0.018005	0.045319	-0.016022	0.009613	0.074463	0.010529	0.17456	-0.013428	-0.002289	0.002594	0.070953	0.052948	-0.19806	-0.011597	-0.00824	-0.11169	-0.18601	0.11917	0.06012	0.004425	0.073853	-0.16724	0.072784	0.00824	-0.03418	0.012665	1.2601	-0.19089	-0.000763	-0.001526
44.654	0.014648	0.2681	-0.028839	0.057983	-0.014801	0.002594	0.076599	0.006409	0.16998	-0.013428	0.024872	0.001984	0.075226	0.04425	-0.336	0.002594	-0.012054	-0.1384	-0.011597	0.066071	0.20538	0.075684	0.23331	-0.046387	0.074615	-0.031891	0.045776	0.000916	0.44052	-0.10269	-0.00351	-0.006866
44.655	0.003967	0.27206	-0.034485	0.019684	-0.003662	0.006409	0.079498	0.013733	0.16373	-0.011444	0.048218	0.002289	0.014191	-0.072327	-0.004578	0.000153	-0.007782	-0.12863	0.006561	0.017242	0.12894	0.05661	0.38574	-0.26642	-0.067139	-0.042725	-0.011292	0.005646	0.15427	-0.024261	-0.002594	-0.001831
44.656	0	0.3038	-0.031433	-0.006866	-0.016632	-0.006256	0.08728	0.005188	0.16571	-0.002136	0.083008	0.006866	-0.033112	-0.16571	0.27313	0.00946	0.005341	-0.13199	-0.18402	0.001984	0.097809	0.063019	0.26428	-0.39597	-0.23499	-0.02243	-0.087585	0.006561	-0.37308	-0.083618	-0.007477	-0.001373
